<?xml version="1.0" standalone="no"?>
<!DOCTYPE svg PUBLIC "-//W3C//DTD SVG 20010904//EN"
 "http://www.w3.org/TR/2001/REC-SVG-20010904/DTD/svg10.dtd">
<svg version="1.0" xmlns="http://www.w3.org/2000/svg"
 width="261.000000pt" height="261.000000pt" viewBox="0 0 261.000000 261.000000"
 preserveAspectRatio="xMidYMid meet">
<metadata>
Created by potrace 1.14, written by Peter Selinger 2001-2017
</metadata>
<g transform="translate(0.000000,261.000000) scale(0.100000,-0.100000)"
fill="#000000" stroke="none">
<path d="M0 2530 c0 -44 4 -80 9 -80 4 0 7 -11 6 -25 -4 -31 24 -41 62 -21 34
17 146 121 150 138 1 7 5 25 9 41 l6 27 -121 0 -121 0 0 -80z"/>
<path d="M2146 2501 c-4 -5 0 -12 6 -14 10 -4 10 -6 1 -6 -14 -1 -6 -31 9 -31
5 0 6 5 3 10 -3 6 -2 10 3 10 6 0 8 9 5 20 -6 21 -18 26 -27 11z"/>
<path d="M2258 2468 c-3 -21 -8 -23 -58 -21 -30 1 -72 4 -92 7 l-38 4 0 -41
c1 -23 6 -63 13 -89 l13 -47 54 28 c39 20 56 35 61 54 5 19 3 27 -6 27 -7 0
-16 -5 -18 -10 -3 -6 -4 -5 -3 2 3 17 75 22 118 9 l33 -11 -40 6 c-32 4 -38 3
-27 -7 6 -7 12 -23 12 -36 0 -13 19 -57 42 -98 32 -57 45 -72 54 -64 7 6 18 8
24 4 5 -3 16 -3 23 2 8 5 2 10 -18 14 l-30 7 28 1 c27 1 39 21 12 21 -17 0
-35 30 -35 59 0 26 9 27 26 4 18 -26 28 -9 25 44 -1 15 -6 21 -15 17 -8 -3
-17 -1 -21 5 -3 6 -16 12 -28 12 -18 1 -19 2 -4 6 11 3 16 10 13 20 -3 8 -6
18 -6 23 0 16 -67 50 -86 43 -11 -4 -15 -3 -10 5 3 6 2 13 -3 16 -5 4 -11 -4
-13 -16z m-11 -51 c3 -4 -10 -7 -30 -7 -20 0 -37 4 -37 10 0 10 56 8 67 -3z"/>
<path d="M2199 2459 c-10 -6 -7 -9 14 -9 29 0 35 5 14 13 -8 3 -20 1 -28 -4z"/>
<path d="M2018 2323 c7 -3 16 -2 19 1 4 3 -2 6 -13 5 -11 0 -14 -3 -6 -6z"/>
<path d="M2185 2316 c-12 -6 -34 -21 -50 -33 -27 -20 -29 -23 -14 -38 14 -15
19 -12 53 30 41 49 43 58 11 41z"/>
<path d="M2162 2245 l-62 -75 37 -18 c27 -13 37 -14 40 -4 3 6 11 12 18 12 7
0 15 10 19 23 8 33 19 137 15 137 -2 0 -32 -34 -67 -75z"/>
<path d="M2251 2302 c-6 -12 -14 -47 -17 -79 -5 -47 -3 -61 10 -72 9 -7 16
-26 16 -42 0 -44 35 -56 86 -32 21 11 38 23 37 29 -2 12 -103 197 -113 208 -4
4 -13 -1 -19 -12z m99 -192 c0 -12 -28 -25 -36 -17 -9 9 6 27 22 27 8 0 14 -5
14 -10z"/>
<path d="M2476 2285 c-11 -30 -17 -143 -8 -149 14 -8 35 21 29 39 -4 8 0 27 8
41 12 24 12 31 -1 56 -17 32 -20 34 -28 13z"/>
<path d="M1940 2270 c0 -10 32 -30 48 -30 6 0 8 9 5 20 -5 20 -53 30 -53 10z"/>
<path d="M2018 2263 c6 -2 18 -2 25 0 6 3 1 5 -13 5 -14 0 -19 -2 -12 -5z"/>
<path d="M1926 2218 c-3 -17 -5 -32 -4 -34 2 -1 18 6 37 16 l35 18 -31 15 -31
16 -6 -31z"/>
<path d="M2070 2234 c0 -11 -6 -13 -19 -9 -11 3 -23 0 -27 -6 -5 -8 -2 -10 8
-7 8 4 21 -2 29 -13 18 -25 34 -24 53 3 15 21 14 23 -7 35 -30 16 -37 16 -37
-3z"/>
<path d="M1951 2179 c-18 -11 -30 -24 -25 -28 5 -5 56 -11 114 -15 94 -5 103
-4 86 9 -24 18 -42 19 -50 3 -3 -7 -4 -4 -3 7 1 14 -5 21 -20 23 -13 2 -23 8
-23 13 0 5 -8 9 -17 9 -15 0 -16 -2 -3 -10 13 -8 13 -10 -2 -10 -9 0 -18 4
-20 10 -1 5 -18 1 -37 -11z m66 -25 c-3 -3 -12 -4 -19 -1 -8 3 -5 6 6 6 11 1
17 -2 13 -5z m40 0 c-3 -3 -12 -4 -19 -1 -8 3 -5 6 6 6 11 1 17 -2 13 -5z"/>
<path d="M2384 2138 c13 -21 46 -24 46 -4 0 8 -13 16 -29 18 -26 4 -28 2 -17
-14z"/>
<path d="M2464 2096 c-3 -14 -12 -27 -20 -30 -22 -9 -16 -23 13 -30 36 -10 59
13 44 43 -7 12 -9 26 -6 31 3 6 -1 10 -9 10 -9 0 -18 -11 -22 -24z"/>
<path d="M2065 2090 c-3 -5 -15 -10 -26 -10 -10 0 -19 -5 -19 -10 0 -19 -51
-59 -68 -53 -10 3 -13 1 -7 -4 6 -4 23 -25 39 -46 24 -32 32 -38 55 -33 21 5
23 4 8 -4 -21 -13 -19 -17 72 -119 61 -67 67 -71 107 -71 26 0 47 6 55 16 12
15 8 16 -39 13 -29 -2 -52 -1 -52 4 0 4 28 7 62 7 57 0 61 -1 46 -16 -14 -14
-14 -19 -1 -45 11 -21 12 -33 3 -46 -10 -16 -10 -15 -5 5 5 18 2 22 -19 22
-14 0 -27 -4 -30 -8 -7 -12 24 -53 35 -47 5 4 9 2 9 -4 0 -6 19 -32 43 -59 34
-37 48 -47 63 -42 19 7 19 7 -1 12 -16 5 -17 6 -2 7 26 2 22 41 -4 41 -31 0
-17 24 15 28 36 4 58 -15 34 -29 -10 -6 -18 -17 -18 -24 0 -8 8 -15 18 -16 15
0 14 -2 -3 -10 -18 -8 -18 -8 5 -6 23 2 25 6 25 50 -3 275 -6 367 -14 363 -5
-3 -8 -51 -6 -106 3 -72 0 -100 -8 -100 -7 0 -6 -4 3 -10 12 -8 12 -10 1 -10
-11 0 -11 -3 -1 -15 10 -12 10 -18 0 -30 -7 -8 -10 -22 -6 -30 4 -12 -2 -15
-27 -14 -23 1 -26 3 -9 6 13 3 22 12 22 23 0 12 -5 17 -13 14 -8 -3 -19 2 -26
10 -11 13 -8 16 16 22 l28 8 -25 7 -25 7 25 2 25 1 -24 10 c-14 6 -21 15 -17
24 3 8 1 17 -4 20 -5 3 -7 13 -4 23 5 14 3 14 -10 -2 -10 -13 -16 -15 -16 -7
0 11 -3 11 -17 0 -16 -13 -17 -12 -4 3 7 10 18 15 24 11 6 -4 8 0 4 9 -3 9 -1
20 5 26 6 6 12 22 13 36 4 36 -43 70 -78 57 -14 -5 -28 -7 -32 -3 -4 4 -5 0
-3 -8 2 -8 12 -18 23 -21 11 -4 -6 -7 -37 -7 -54 -1 -63 4 -59 31 2 16 -10 6
-20 -15 l-10 -23 5 22 c2 13 0 26 -5 29 -17 10 -9 70 12 93 33 35 18 51 -45
51 -30 0 -58 -4 -61 -10z m-1 -39 c4 -5 -3 -7 -14 -4 -23 6 -26 13 -6 13 8 0
17 -4 20 -9z m4 -38 c-10 -2 -26 -2 -35 0 -10 3 -2 5 17 5 19 0 27 -2 18 -5z
m167 -133 c-3 -5 -13 -10 -21 -10 -8 0 -12 -4 -9 -10 3 -5 22 -10 41 -10 19 0
34 5 34 10 0 6 -7 10 -15 10 -8 0 -15 5 -15 10 0 12 20 13 39 1 28 -18 4 -41
-41 -41 -56 0 -77 12 -59 34 14 17 56 23 46 6z"/>
<path d="M1943 2070 c-31 -12 -30 -40 0 -40 22 0 57 27 57 43 0 10 -30 8 -57
-3z"/>
<path d="M2348 2063 c-9 -2 -19 -11 -22 -19 -4 -10 -2 -12 6 -8 6 4 8 3 4 -4
-11 -18 11 -56 43 -75 30 -17 31 -17 32 0 0 16 1 16 10 -2 l9 -20 -3 20 c-1
14 -11 21 -30 23 -16 2 -26 8 -24 15 2 7 -3 17 -12 24 -14 10 -14 11 -1 11 39
-2 60 3 60 16 0 11 -33 28 -50 25 -3 -1 -12 -3 -22 -6z"/>
<path d="M2566 2051 c-9 -10 -16 -34 -16 -54 0 -33 4 -39 26 -36 17 2 23 -27
8 -38 -14 -10 -13 -13 5 -23 21 -10 21 -9 21 74 0 90 -13 112 -44 77z"/>
<path d="M2165 2020 c-3 -5 -1 -10 4 -10 6 0 11 5 11 10 0 6 -2 10 -4 10 -3 0
-8 -4 -11 -10z"/>
<path d="M1912 1995 c-2 -23 0 -26 13 -15 8 7 15 8 15 2 0 -5 -7 -15 -15 -22
-14 -11 -22 -80 -10 -80 4 0 20 7 36 16 17 8 33 14 35 11 2 -2 -18 -14 -45
-27 -48 -22 -49 -24 -53 -71 -1 -27 -1 -49 2 -49 3 0 16 -10 30 -21 l25 -20
-31 15 c-28 14 -31 13 -31 -2 0 -9 7 -25 15 -35 15 -16 14 -17 -1 -11 -20 7
-20 4 -7 -31 9 -22 15 -26 35 -21 18 5 27 2 31 -9 4 -8 14 -15 23 -15 11 0 3
12 -24 36 l-40 36 55 -38 c30 -21 68 -49 84 -62 23 -18 31 -20 38 -10 5 8 6 0
3 -21 -5 -30 -4 -32 10 -17 18 17 30 21 21 7 -7 -10 39 -43 48 -34 8 9 8 83
-1 83 -3 0 -16 -8 -27 -17 -21 -18 -21 -18 -3 4 18 21 18 22 -2 33 -12 6 -25
9 -29 7 -4 -2 -17 7 -29 20 -22 23 -18 34 5 11 9 -9 12 -8 16 3 12 37 16 41
12 13 -4 -26 -1 -33 21 -43 35 -16 53 1 53 49 0 47 -6 56 -232 303 -43 48 -44
48 -46 22z m138 -330 c0 -3 -18 4 -40 15 -22 11 -40 23 -40 25 0 3 18 -4 40
-15 22 -11 40 -23 40 -25z"/>
<path d="M2300 2010 c0 -5 5 -10 11 -10 5 0 7 5 4 10 -3 6 -8 10 -11 10 -2 0
-4 -4 -4 -10z"/>
<path d="M2388 2013 c7 -3 16 -2 19 1 4 3 -2 6 -13 5 -11 0 -14 -3 -6 -6z"/>
<path d="M2480 2005 c0 -8 2 -15 4 -15 2 0 6 7 10 15 3 8 1 15 -4 15 -6 0 -10
-7 -10 -15z"/>
<path d="M2195 1980 c3 -5 8 -10 11 -10 2 0 4 5 4 10 0 6 -5 10 -11 10 -5 0
-7 -4 -4 -10z"/>
<path d="M2235 1980 c-3 -5 -1 -10 4 -10 6 0 11 5 11 10 0 6 -2 10 -4 10 -3 0
-8 -4 -11 -10z"/>
<path d="M2280 1980 c0 -5 4 -10 9 -10 6 0 13 5 16 10 3 6 -1 10 -9 10 -9 0
-16 -4 -16 -10z"/>
<path d="M1093 1960 c-69 -31 -57 -49 29 -47 61 2 73 5 76 20 5 23 -35 23 -60
0 -19 -17 -26 -5 -7 14 25 25 3 32 -38 13z"/>
<path d="M838 1952 c-45 -6 -35 -32 12 -32 28 0 40 4 40 14 0 17 -16 23 -52
18z"/>
<path d="M2472 1833 c3 -107 5 -121 26 -143 12 -13 22 -27 22 -32 0 -9 75 -88
84 -88 18 0 3 96 -24 157 -38 84 -38 97 1 18 l29 -60 0 98 0 97 -35 17 c-48
23 -62 9 -41 -42 22 -51 19 -58 -5 -12 -11 20 -24 37 -29 37 -6 0 -10 13 -10
29 0 17 -5 33 -11 37 -8 4 -10 -29 -7 -113z"/>
<path d="M155 1930 c-7 -12 12 -12 40 0 18 8 17 9 -7 9 -15 1 -30 -3 -33 -9z"/>
<path d="M1250 1924 c0 -17 24 -18 38 -1 8 9 4 12 -14 13 -15 1 -24 -4 -24
-12z"/>
<path d="M214 1923 c-29 -5 -38 -40 -14 -48 22 -7 70 4 70 15 0 5 -3 15 -6 24
-6 16 -11 17 -50 9z"/>
<path d="M688 1923 c7 -3 16 -2 19 1 4 3 -2 6 -13 5 -11 0 -14 -3 -6 -6z"/>
<path d="M970 1920 c0 -5 14 -10 30 -10 17 0 30 5 30 10 0 6 -13 10 -30 10
-16 0 -30 -4 -30 -10z"/>
<path d="M80 1912 c0 -7 6 -12 13 -12 23 0 -17 -19 -56 -25 -31 -6 -36 -9 -26
-21 9 -11 9 -14 0 -14 -7 0 -10 -4 -7 -9 8 -13 106 10 106 25 0 7 8 18 18 23
12 8 13 10 3 11 -8 0 -23 7 -33 17 -11 9 -18 11 -18 5z"/>
<path d="M517 1884 c-11 -12 5 -34 27 -35 12 0 15 -3 8 -6 -10 -4 1 -21 35
-57 l48 -51 -49 45 c-28 25 -58 55 -69 68 -12 14 -28 22 -41 20 -17 -2 -27
-22 -55 -105 -19 -56 -37 -101 -39 -99 -2 2 10 48 28 101 17 54 29 100 26 102
-2 2 -27 -34 -56 -81 -54 -90 -82 -121 -34 -38 15 26 37 65 50 87 l23 40 -35
0 c-18 0 -34 -4 -34 -10 0 -6 -9 -16 -20 -23 -18 -11 -20 -10 -20 10 -1 21 -3
20 -31 -12 l-31 -35 22 33 21 32 -23 0 c-30 0 -72 -54 -74 -95 -2 -24 0 -26
10 -15 6 8 20 22 30 30 18 13 19 13 11 0 -4 -8 -17 -25 -28 -37 l-19 -22 33
-15 c22 -10 25 -14 9 -10 -14 4 -30 9 -37 11 -7 3 -10 -3 -6 -16 4 -17 1 -21
-18 -22 -24 0 -24 -1 -3 -11 12 -5 31 -28 43 -49 13 -22 27 -36 33 -33 7 4 8
2 4 -5 -6 -9 -11 -9 -23 0 -12 10 -16 10 -24 -2 -12 -19 -11 -27 4 -36 6 -4
19 -17 27 -28 13 -17 11 -16 -17 3 -24 17 -45 23 -80 21 -27 -1 -57 2 -67 7
-15 6 -18 4 -13 -9 4 -11 2 -14 -9 -10 -17 6 -19 23 -2 23 6 0 9 3 6 6 -3 3 5
16 19 30 20 20 22 28 13 39 -7 8 -17 15 -22 15 -6 0 -19 11 -30 25 -11 14 -24
25 -29 25 -6 0 -9 -77 -9 -198 l2 -199 36 3 c20 2 39 4 42 5 3 0 15 0 27 -1
12 0 34 6 50 14 l28 15 -35 0 c-26 1 -31 -2 -20 -9 13 -8 13 -10 -1 -10 -30 0
-33 53 -5 72 7 5 7 8 -1 8 -7 0 -13 7 -13 15 0 11 11 15 39 15 44 0 61 -14 35
-28 -15 -8 -15 -10 0 -15 8 -3 13 -13 10 -21 -8 -21 10 -28 109 -43 60 -8 102
-10 124 -4 23 7 31 6 27 -1 -4 -6 -1 -9 5 -7 20 7 14 24 -9 27 -11 2 -18 7
-15 12 3 5 -8 17 -25 26 -16 10 -30 22 -30 27 0 4 -5 5 -12 1 -7 -5 -8 -3 -3
5 5 9 13 7 29 -7 25 -24 87 -62 100 -62 5 0 -1 12 -15 27 -17 20 -18 23 -3 10
29 -24 37 -22 57 16 22 41 71 74 142 96 42 13 61 26 79 52 34 50 91 90 136 96
22 3 38 8 36 12 -2 3 9 6 24 6 16 0 26 -2 24 -5 -3 -2 19 -10 48 -16 29 -7 62
-15 73 -18 17 -6 25 4 52 56 26 49 30 65 20 76 -9 12 -6 19 16 36 20 17 27 31
27 58 0 39 -14 51 -44 36 -14 -8 -16 -7 -11 2 7 12 -7 11 -92 -2 -7 -1 -12 -4
-11 -7 2 -18 -3 -31 -11 -31 -5 0 -7 9 -4 19 4 16 -2 21 -32 27 -46 8 -64 -7
-70 -61 -3 -22 -10 -44 -16 -50 -8 -7 -10 -4 -6 10 3 11 9 37 13 58 l6 37 -36
0 c-27 0 -35 -3 -30 -12 6 -10 5 -10 -7 -1 -18 14 -35 5 -42 -22 -4 -15 -5
-14 -6 8 -1 30 -4 32 -32 16 -13 -7 -24 -7 -32 -1 -7 5 -42 9 -79 9 l-67 -1
36 -50 c36 -51 35 -51 -21 12 -52 56 -82 73 -99 56z m40 -10 c-3 -3 -12 -4
-19 -1 -8 3 -5 6 6 6 11 1 17 -2 13 -5z m500 -116 c-2 -13 -4 -5 -4 17 -1 22
1 32 4 23 2 -10 2 -28 0 -40z m-751 -95 c-27 -52 -47 -69 -24 -21 13 26 26 48
31 48 4 0 1 -12 -7 -27z m-271 -84 c11 -17 -1 -21 -15 -4 -8 9 -8 15 -2 15 6
0 14 -5 17 -11z m161 -76 c1 -13 -3 -20 -9 -16 -5 3 -23 6 -38 5 -16 0 -31 4
-34 9 -12 18 7 30 43 27 30 -2 37 -7 38 -25z m139 -63 c10 -11 16 -20 13 -20
-3 0 -13 9 -23 20 -10 11 -16 20 -13 20 3 0 13 -9 23 -20z m-145 6 c0 -8 -71
-12 -76 -4 -3 4 13 8 35 8 23 0 41 -2 41 -4z"/>
<path d="M120 1509 c0 -5 13 -7 30 -6 39 3 39 16 0 15 -16 -1 -30 -5 -30 -9z"/>
<path d="M2403 1883 c4 -3 -1 -12 -11 -19 -15 -12 -15 -13 5 -8 26 7 39 34 16
34 -9 0 -13 -3 -10 -7z"/>
<path d="M1256 1851 c-10 -11 -16 -31 -14 -45 l3 -26 54 33 c71 42 76 57 18
57 -31 0 -49 -6 -61 -19z"/>
<path d="M1420 1857 c0 -3 12 -12 26 -22 15 -9 23 -12 20 -6 -7 11 -46 35 -46
28z"/>
<path d="M1352 1833 c-39 -19 -35 -28 7 -18 17 4 31 13 31 21 0 17 2 17 -38
-3z"/>
<path d="M1400 1841 c0 -9 30 -24 36 -18 2 1 -6 8 -16 15 -11 7 -20 8 -20 3z"/>
<path d="M2398 1833 c6 -2 18 -2 25 0 6 3 1 5 -13 5 -14 0 -19 -2 -12 -5z"/>
<path d="M51 1818 c-37 -10 -33 -19 20 -41 l35 -14 2 33 c3 37 -1 38 -57 22z"/>
<path d="M140 1820 c0 -5 5 -10 10 -10 6 0 10 5 10 10 0 6 -4 10 -10 10 -5 0
-10 -4 -10 -10z"/>
<path d="M2398 1803 c7 -3 16 -2 19 1 4 3 -2 6 -13 5 -11 0 -14 -3 -6 -6z"/>
<path d="M46 1755 c7 -16 35 -35 53 -35 24 0 9 29 -20 39 -40 14 -40 14 -33
-4z"/>
<path d="M1315 1761 c3 -6 -3 -9 -12 -8 -23 1 -75 -32 -67 -44 3 -5 -4 -9 -16
-9 -12 0 -18 -4 -15 -10 3 -5 2 -10 -3 -10 -15 0 -49 -59 -48 -83 2 -24 -25
-51 -35 -36 -3 6 -16 11 -27 12 -12 1 -22 5 -22 9 0 10 -60 20 -113 20 -83 -1
-87 -2 -87 -19 0 -15 -2 -16 -10 -3 -6 10 -10 11 -10 3 0 -7 -7 -13 -16 -13
-8 0 -12 -4 -9 -10 3 -5 -1 -10 -9 -10 -9 0 -16 -5 -16 -10 0 -6 -9 -20 -20
-32 -10 -12 -17 -25 -14 -30 3 -5 2 -8 -3 -7 -4 1 -15 0 -23 -4 -8 -3 -28 -9
-45 -13 -16 -4 -33 -8 -37 -9 -5 -2 -12 -3 -18 -4 -5 0 -28 -20 -50 -42 -31
-32 -38 -44 -28 -50 10 -7 9 -9 -4 -9 -28 0 -22 -16 22 -59 22 -22 40 -48 39
-58 0 -16 -1 -16 -9 2 -7 17 -9 17 -9 3 -1 -10 -6 -18 -12 -18 -6 0 -9 12 -7
27 3 23 0 26 -30 27 -29 1 -32 -1 -31 -29 1 -29 1 -30 9 -5 6 19 8 20 9 6 1
-12 6 -16 16 -12 8 3 15 1 15 -4 0 -5 -8 -11 -18 -13 -16 -4 -16 -5 1 -6 9 0
17 -5 17 -11 0 -5 -8 -10 -17 -11 -15 0 -15 -2 2 -9 17 -7 17 -9 3 -9 -35 -2
6 -61 41 -61 12 0 21 -5 21 -11 0 -5 -4 -8 -8 -5 -4 2 -14 1 -22 -5 -12 -7
-10 -9 8 -9 16 0 22 -6 21 -22 0 -22 -1 -22 -9 -3 -8 18 -9 18 -9 2 -1 -10 6
-25 14 -33 8 -9 15 -11 15 -5 0 19 20 12 21 -6 0 -15 2 -15 9 2 7 17 9 17 9 3
1 -10 6 -18 12 -18 6 0 9 7 5 15 -3 8 -1 15 4 15 5 0 11 -10 13 -22 l4 -23 2
23 c1 27 37 31 44 5 4 -16 5 -16 6 -1 1 10 12 18 29 21 l27 4 -27 2 c-16 0
-28 6 -28 12 0 6 7 9 15 5 8 -3 15 -1 15 4 0 6 -8 10 -17 10 -15 0 -16 2 -3
10 18 11 17 12 -77 13 -53 0 -61 3 -60 19 1 18 17 26 17 8 0 -5 16 -10 36 -10
19 0 33 4 30 9 -3 4 -18 7 -33 5 -16 -2 -20 -1 -10 2 12 4 15 12 11 30 -6 22
10 36 18 15 2 -6 24 -11 51 -12 38 -2 47 -6 47 -21 0 -12 -7 -18 -22 -17 -21
0 -22 1 -4 8 19 7 19 8 -2 13 -17 5 -22 2 -22 -13 0 -14 7 -19 30 -19 29 0 30
1 30 50 0 30 4 50 11 50 7 0 9 -10 7 -25 -5 -22 -2 -25 23 -25 16 0 29 -4 29
-10 0 -5 -8 -7 -17 -4 -17 5 -17 5 0 -6 9 -6 40 -11 67 -12 31 0 50 -4 50 -12
0 -7 20 -11 58 -10 69 2 72 3 47 14 -17 7 -17 9 -2 9 9 1 17 6 17 12 0 6 -7 9
-15 5 -8 -3 -15 -1 -15 4 0 6 9 10 20 10 15 0 20 -7 20 -28 0 -23 4 -27 30
-27 38 -1 40 15 3 16 -17 1 -21 3 -10 6 9 2 17 8 17 13 0 5 -6 7 -13 4 -10 -3
-14 5 -15 31 -1 19 3 35 9 35 6 0 9 -7 5 -15 -3 -8 -1 -15 4 -15 6 0 10 8 11
18 0 14 2 14 9 -3 7 -17 9 -17 9 -2 1 9 6 17 11 17 6 0 10 -8 11 -17 0 -15 2
-15 9 2 8 19 9 19 9 1 1 -25 9 -17 14 13 2 12 10 27 18 32 12 7 12 9 -1 9 -10
0 -15 10 -15 30 0 23 4 30 20 30 17 0 17 -2 5 -10 -13 -9 -13 -10 0 -11 8 -1
21 -1 28 0 6 1 12 -3 12 -9 0 -5 -12 -10 -27 -11 -16 0 -22 -3 -15 -6 6 -2 12
-16 12 -29 0 -14 4 -23 9 -19 6 3 8 14 6 24 -4 22 15 33 36 20 11 -7 10 -9 -6
-9 -19 -1 -19 -1 -2 -11 18 -10 18 -11 0 -25 -15 -11 -15 -13 -1 -8 11 4 16 0
15 -13 -1 -10 -6 -21 -12 -25 -11 -8 17 -11 78 -8 29 1 37 -2 37 -16 0 -9 3
-14 7 -11 3 4 6 22 5 41 -1 28 3 35 21 39 l22 4 -22 2 c-13 0 -23 5 -23 11 0
5 7 7 15 4 8 -4 15 -1 15 4 0 6 -8 13 -17 15 -11 3 -7 5 10 6 16 1 27 7 27 15
0 9 9 14 20 13 25 -2 26 -14 3 -20 -10 -3 -1 -5 20 -6 36 -1 37 0 37 37 0 31
4 38 20 39 25 2 27 -14 3 -20 -16 -4 -16 -5 -1 -6 9 0 19 -9 21 -18 4 -17 5
-17 6 0 0 9 8 17 16 17 8 0 15 4 15 10 0 5 -7 7 -15 4 -8 -4 -15 -1 -15 5 0 6
9 11 19 11 15 0 21 -8 24 -32 l4 -33 1 33 c2 24 7 32 21 32 11 0 22 -8 24 -17
4 -17 5 -17 6 0 0 9 5 17 10 17 5 0 12 -8 14 -17 4 -16 5 -16 6 -1 0 9 9 19
19 21 9 3 2 5 -15 6 -26 1 -33 5 -33 21 0 25 17 26 23 3 4 -16 5 -16 6 -1 0 9
9 19 19 21 16 4 16 5 0 6 -11 1 -18 9 -18 22 0 11 -4 18 -10 14 -5 -3 -7 -12
-3 -20 3 -8 0 -15 -6 -15 -6 0 -11 10 -12 23 -1 21 -1 21 -9 -3 -5 -17 -8 -19
-9 -7 -1 9 -6 17 -12 17 -6 0 -9 -7 -5 -15 3 -8 1 -15 -4 -15 -5 0 -11 10 -13
23 l-4 22 -2 -22 c-1 -28 -41 -33 -41 -5 0 26 -40 24 -41 -3 -1 -20 -1 -20 -7
0 -10 28 -42 29 -43 1 -1 -15 -3 -16 -6 -5 -5 19 -28 27 -56 21 -11 -2 -16 -9
-13 -18 3 -8 1 -14 -4 -14 -6 0 -10 6 -10 14 0 18 -33 15 -42 -4 -4 -9 -7 1
-7 23 -1 20 3 37 8 37 5 0 11 9 14 19 3 14 1 18 -9 14 -8 -3 -14 -1 -14 4 0 5
9 9 21 10 14 1 19 -3 15 -12 -2 -7 2 -19 10 -25 8 -7 14 -19 14 -26 0 -19 29
-18 36 1 5 12 10 13 20 4 11 -9 14 -8 14 2 0 12 2 12 9 0 7 -11 9 -11 14 0 4
12 7 11 16 -1 10 -13 11 -13 11 0 0 12 2 12 9 2 7 -11 9 -11 14 2 4 10 1 16
-8 16 -9 0 -15 9 -14 23 1 16 2 18 6 5 2 -10 11 -18 18 -18 8 0 16 -10 18 -22
3 -14 5 -9 6 15 1 37 2 37 44 38 23 1 34 3 25 6 -19 5 -26 43 -8 43 5 0 7 -7
4 -15 -4 -8 -1 -15 5 -15 6 0 12 8 12 18 1 9 4 4 8 -13 l7 -30 5 33 c5 30 3
32 -22 32 -18 0 -29 6 -32 18 -4 16 -5 16 -6 0 0 -10 -5 -18 -11 -18 -5 0 -7
7 -4 15 4 10 0 15 -12 16 -18 0 -17 1 1 9 18 8 18 9 2 9 -11 1 -17 7 -15 19 2
11 -3 16 -14 14 -10 -2 -18 2 -18 8 0 5 -11 10 -25 10 -15 0 -25 5 -24 13 3
28 -2 48 -11 42 -5 -3 -10 1 -10 9 0 16 -14 20 -57 16 -13 -1 -23 4 -23 12 0
10 -3 9 -10 -2 -8 -12 -11 -13 -19 -1 -7 11 -9 11 -14 0 -4 -10 -6 -10 -6 -1
-1 6 -10 12 -20 12 -11 0 -22 -6 -24 -12 -4 -10 -6 -10 -6 0 -1 6 -6 12 -12
12 -5 0 -8 -4 -4 -9z m148 -58 c-7 -2 -19 -2 -25 0 -7 3 -2 5 12 5 14 0 19 -2
13 -5z m54 -45 c-3 -7 -5 -2 -5 12 0 14 2 19 5 13 2 -7 2 -19 0 -25z m28 -28
c3 -5 1 -10 -4 -10 -6 0 -11 5 -11 10 0 6 2 10 4 10 3 0 8 -4 11 -10z m55 0
c0 -5 -5 -10 -11 -10 -5 0 -7 5 -4 10 3 6 8 10 11 10 2 0 4 -4 4 -10z m-349
-7 c-11 -5 -11 -7 0 -14 11 -7 10 -9 -3 -9 -10 0 -18 7 -18 15 0 8 8 15 18 14
12 0 13 -2 3 -6z m56 -17 c1 -12 -1 -16 -4 -9 -2 7 -10 11 -16 9 -7 -1 -8 -1
-3 2 4 2 2 8 -5 13 -10 6 -8 8 7 7 13 -1 20 -9 21 -22z m272 -17 c-10 -10 -27
-18 -36 -18 -17 1 -17 2 0 6 9 2 17 10 17 17 0 6 9 12 19 13 19 2 19 1 0 -18z
m-322 -35 c-3 -3 -12 -4 -19 -1 -8 3 -5 6 6 6 11 1 17 -2 13 -5z m46 -1 c-7
-2 -19 -2 -25 0 -7 3 -2 5 12 5 14 0 19 -2 13 -5z m67 3 c0 -3 -4 -8 -10 -11
-5 -3 -10 -1 -10 4 0 6 5 11 10 11 6 0 10 -2 10 -4z m130 0 c0 -3 -4 -8 -10
-11 -5 -3 -10 -1 -10 4 0 6 5 11 10 11 6 0 10 -2 10 -4z m50 -7 c0 -6 -7 -9
-15 -5 -9 3 -15 0 -15 -9 0 -8 -7 -15 -15 -15 -8 0 -12 -6 -9 -14 4 -9 -3 -13
-21 -13 l-25 0 32 32 c33 33 68 45 68 24z m17 -21 c-3 -7 -5 -2 -5 12 0 14 2
19 5 13 2 -7 2 -19 0 -25z m33 22 c0 -5 -2 -10 -4 -10 -3 0 -8 5 -11 10 -3 6
-1 10 4 10 6 0 11 -4 11 -10z m32 -20 c5 0 8 7 4 15 -3 8 -1 15 4 15 6 0 10
-9 10 -20 0 -13 -7 -20 -20 -20 -14 0 -20 6 -19 23 1 16 2 18 6 5 2 -10 9 -18
15 -18z m-752 -16 c0 -9 -7 -22 -17 -29 -21 -16 -55 12 -38 32 15 19 55 16 55
-3z m365 2 c12 -12 12 -15 1 -19 -8 -3 -16 2 -19 14 -6 23 -1 24 18 5z m62 1
c0 -7 -10 -13 -21 -14 -12 -1 -15 1 -8 4 6 3 10 9 6 14 -3 5 1 9 9 9 7 0 14
-6 14 -13z m156 6 c-7 -2 -19 -2 -25 0 -7 3 -2 5 12 5 14 0 19 -2 13 -5z m57
-33 c0 -14 -6 -20 -22 -19 -17 1 -19 2 -5 6 9 2 17 11 17 19 0 8 2 14 5 14 3
0 5 -9 5 -20z m30 10 c0 -5 -4 -10 -10 -10 -5 0 -10 5 -10 10 0 6 5 10 10 10
6 0 10 -4 10 -10z m50 0 c0 -5 -4 -10 -10 -10 -5 0 -10 5 -10 10 0 6 5 10 10
10 6 0 10 -4 10 -10z m-340 -79 c0 -17 -3 -30 -7 -28 -5 1 -9 -2 -10 -8 -2 -5
13 -10 31 -9 19 0 33 -4 30 -8 -3 -4 -14 -8 -25 -8 -12 0 -19 -7 -19 -20 0
-11 4 -20 10 -20 5 0 7 6 4 14 -4 9 3 13 23 13 15 0 23 -2 16 -4 -7 -2 -10
-10 -7 -17 4 -10 -7 -13 -38 -12 -29 1 -42 5 -40 14 1 8 -14 12 -53 12 -37 0
-55 4 -56 13 0 10 -2 10 -6 0 -2 -7 -13 -13 -24 -13 -15 0 -18 7 -16 45 1 40
3 43 14 28 12 -16 13 -16 13 0 0 9 6 16 13 15 6 -2 11 4 10 12 -2 11 8 15 42
16 31 0 45 -4 45 -13 0 -7 5 -13 10 -13 6 0 9 3 9 8 -1 4 -1 15 0 25 2 32 31
-7 31 -42z m203 52 c-7 -2 -19 -2 -25 0 -7 3 -2 5 12 5 14 0 19 -2 13 -5z
m-165 -30 c16 -17 16 -19 0 -35 -10 -10 -18 -15 -19 -10 -4 30 -5 62 -2 62 1
0 11 -8 21 -17z m39 -45 c-3 -7 -5 -2 -5 12 0 14 2 19 5 13 2 -7 2 -19 0 -25z
m-277 2 c0 -5 -2 -10 -4 -10 -3 0 -8 5 -11 10 -3 6 -1 10 4 10 6 0 11 -4 11
-10z m305 0 c3 -5 1 -10 -4 -10 -6 0 -11 5 -11 10 0 6 2 10 4 10 3 0 8 -4 11
-10z m130 0 c3 -5 1 -10 -4 -10 -6 0 -11 5 -11 10 0 6 2 10 4 10 3 0 8 -4 11
-10z m50 0 c3 -5 1 -10 -4 -10 -6 0 -11 5 -11 10 0 6 2 10 4 10 3 0 8 -4 11
-10z m55 0 c0 -5 -5 -10 -11 -10 -5 0 -7 5 -4 10 3 6 8 10 11 10 2 0 4 -4 4
-10z m-1007 -45 c-7 -21 -12 -19 -10 4 0 11 5 18 9 15 4 -3 5 -11 1 -19z m744
-7 c-3 -7 -5 -2 -5 12 0 14 2 19 5 13 2 -7 2 -19 0 -25z m159 12 c0 -11 -4
-20 -8 -20 -4 0 -8 9 -8 20 0 11 4 20 8 20 4 0 8 -9 8 -20z m21 -12 c-3 -7 -5
-2 -5 12 0 14 2 19 5 13 2 -7 2 -19 0 -25z m33 22 c0 -5 -4 -10 -10 -10 -5 0
-10 5 -10 10 0 6 5 10 10 10 6 0 10 -4 10 -10z m32 -20 c5 0 8 7 4 15 -3 8 -1
15 4 15 6 0 10 -9 10 -20 0 -13 -7 -20 -20 -20 -14 0 -20 6 -19 23 1 16 2 18
6 5 2 -10 9 -18 15 -18z m50 0 c5 0 8 7 4 15 -3 8 -1 15 4 15 6 0 10 -9 10
-20 0 -13 -7 -20 -20 -20 -14 0 -20 6 -19 23 1 16 2 18 6 5 2 -10 9 -18 15
-18z m68 10 c0 -13 -7 -20 -20 -20 -13 0 -20 7 -20 20 0 13 7 20 20 20 13 0
20 -7 20 -20z m-870 -40 c0 -5 -4 -10 -10 -10 -5 0 -10 5 -10 10 0 6 5 10 10
10 6 0 10 -4 10 -10z m50 0 c0 -5 -4 -10 -10 -10 -5 0 -10 5 -10 10 0 6 5 10
10 10 6 0 10 -4 10 -10z m60 -2 c0 6 4 12 9 12 5 0 9 -6 8 -12 -1 -32 4 -49
12 -43 6 3 9 -4 8 -15 -1 -13 -5 -16 -11 -10 -6 6 -18 10 -28 10 -10 0 -18 5
-18 11 0 5 5 7 12 3 7 -5 8 -3 2 7 -4 8 -10 23 -11 34 -3 16 -1 17 7 5 6 -10
10 -11 10 -2z m37 -7 c0 -11 -5 -18 -9 -15 -4 3 -5 11 -1 19 7 21 12 19 10 -4z
m83 9 c0 -5 -2 -10 -4 -10 -3 0 -8 5 -11 10 -3 6 -1 10 4 10 6 0 11 -4 11 -10z
m50 2 c0 -4 -9 -8 -20 -8 -11 0 -20 4 -20 8 0 4 9 8 20 8 11 0 20 -4 20 -8z
m30 -2 c0 -5 -4 -10 -10 -10 -5 0 -10 5 -10 10 0 6 5 10 10 10 6 0 10 -4 10
-10z m50 0 c0 -5 -4 -10 -10 -10 -5 0 -10 5 -10 10 0 6 5 10 10 10 6 0 10 -4
10 -10z m180 0 c0 -5 -4 -10 -10 -10 -5 0 -10 5 -10 10 0 6 5 10 10 10 6 0 10
-4 10 -10z m50 0 c0 -5 -2 -10 -4 -10 -3 0 -8 5 -11 10 -3 6 -1 10 4 10 6 0
11 -4 11 -10z m80 6 c0 -3 -4 -8 -10 -11 -5 -3 -10 -1 -10 4 0 6 5 11 10 11 6
0 10 -2 10 -4z m50 -6 c0 -5 -4 -10 -10 -10 -5 0 -10 5 -10 10 0 6 5 10 10 10
6 0 10 -4 10 -10z m-757 -27 c-7 -2 -19 -2 -25 0 -7 3 -2 5 12 5 14 0 19 -2
13 -5z m310 0 c-7 -2 -19 -2 -25 0 -7 3 -2 5 12 5 14 0 19 -2 13 -5z m209 0
c-10 -4 -10 -8 -1 -19 17 -21 2 -17 -21 6 l-20 20 28 -1 c15 0 21 -3 14 -6z
m25 -25 c-3 -7 -5 -2 -5 12 0 14 2 19 5 13 2 -7 2 -19 0 -25z m133 12 c0 -13
-7 -20 -20 -20 -11 0 -20 5 -20 11 0 5 4 8 9 4 5 -3 12 -1 15 4 4 5 -2 12 -11
14 -14 4 -13 5 5 6 16 1 22 -5 22 -19z m-690 -10 c0 -5 -4 -10 -10 -10 -5 0
-10 5 -10 10 0 6 5 10 10 10 6 0 10 -4 10 -10z m50 0 c0 -5 -4 -10 -10 -10 -5
0 -10 5 -10 10 0 6 5 10 10 10 6 0 10 -4 10 -10z m50 0 c0 -5 -5 -10 -11 -10
-5 0 -7 5 -4 10 3 6 8 10 11 10 2 0 4 -4 4 -10z m125 0 c3 -5 1 -10 -4 -10 -6
0 -11 5 -11 10 0 6 2 10 4 10 3 0 8 -4 11 -10z m55 0 c0 -5 -2 -10 -4 -10 -3
0 -8 5 -11 10 -3 6 -1 10 4 10 6 0 11 -4 11 -10z m75 0 c3 -5 1 -10 -4 -10 -6
0 -11 5 -11 10 0 6 2 10 4 10 3 0 8 -4 11 -10z m50 0 c3 -5 1 -10 -4 -10 -6 0
-11 5 -11 10 0 6 2 10 4 10 3 0 8 -4 11 -10z m185 0 c0 -5 -4 -10 -10 -10 -5
0 -10 5 -10 10 0 6 5 10 10 10 6 0 10 -4 10 -10z m50 0 c0 -5 -4 -10 -10 -10
-5 0 -10 5 -10 10 0 6 5 10 10 10 6 0 10 -4 10 -10z m130 0 c0 -5 -4 -10 -10
-10 -5 0 -10 5 -10 10 0 6 5 10 10 10 6 0 10 -4 10 -10z m-584 -34 c21 -21 18
-26 -16 -26 -16 0 -30 5 -30 10 0 6 6 9 13 8 6 -2 11 3 10 10 -4 16 5 15 23
-2z m137 7 c-7 -2 -19 -2 -25 0 -7 3 -2 5 12 5 14 0 19 -2 13 -5z m54 -25 c-3
-7 -5 -2 -5 12 0 14 2 19 5 13 2 -7 2 -19 0 -25z m180 0 c-3 -7 -5 -2 -5 12 0
14 2 19 5 13 2 -7 2 -19 0 -25z m-692 2 c3 -5 1 -10 -4 -10 -6 0 -11 5 -11 10
0 6 2 10 4 10 3 0 8 -4 11 -10z m130 0 c3 -5 1 -10 -4 -10 -6 0 -11 5 -11 10
0 6 2 10 4 10 3 0 8 -4 11 -10z m55 0 c0 -5 -4 -10 -10 -10 -5 0 -10 5 -10 10
0 6 5 10 10 10 6 0 10 -4 10 -10z m50 -6 c0 -2 -9 -4 -20 -4 -11 0 -20 4 -20
9 0 5 9 7 20 4 11 -3 20 -7 20 -9z m25 6 c3 -5 1 -10 -4 -10 -6 0 -11 5 -11
10 0 6 2 10 4 10 3 0 8 -4 11 -10z m100 0 c3 -5 1 -10 -4 -10 -6 0 -11 5 -11
10 0 6 2 10 4 10 3 0 8 -4 11 -10z m55 0 c0 -5 -5 -10 -11 -10 -5 0 -7 5 -4
10 3 6 8 10 11 10 2 0 4 -4 4 -10z m50 -2 c0 -4 -9 -8 -20 -8 -11 0 -20 4 -20
8 0 4 9 8 20 8 11 0 20 -4 20 -8z m25 2 c3 -5 1 -10 -4 -10 -6 0 -11 5 -11 10
0 6 2 10 4 10 3 0 8 -4 11 -10z m50 0 c3 -5 1 -10 -4 -10 -6 0 -11 5 -11 10 0
6 2 10 4 10 3 0 8 -4 11 -10z m180 0 c3 -5 1 -10 -4 -10 -6 0 -11 5 -11 10 0
6 2 10 4 10 3 0 8 -4 11 -10z m55 0 c0 -5 -4 -10 -10 -10 -5 0 -10 5 -10 10 0
6 5 10 10 10 6 0 10 -4 10 -10z m-820 -24 c0 -3 -4 -8 -10 -11 -5 -3 -10 -1
-10 4 0 6 5 11 10 11 6 0 10 -2 10 -4z m200 -16 c0 -13 -7 -20 -20 -20 -11 0
-20 4 -20 10 0 5 7 7 15 4 9 -4 15 0 15 10 0 9 2 16 5 16 3 0 5 -9 5 -20z m80
9 c0 -6 -7 -9 -15 -5 -8 3 -15 1 -15 -4 0 -5 8 -11 18 -13 13 -4 11 -5 -5 -6
-17 -1 -23 5 -23 19 0 13 7 20 20 20 11 0 20 -5 20 -11z m59 -6 c1 10 9 17 21
17 16 0 19 -6 18 -34 -1 -27 -6 -35 -25 -39 -12 -2 -28 2 -34 9 -6 8 -8 14 -3
15 5 0 0 4 -11 9 -17 7 -17 9 -2 9 9 1 17 9 18 19 0 14 2 14 9 -3 7 -17 9 -17
9 -2z m121 7 c0 -5 -2 -10 -4 -10 -3 0 -8 5 -11 10 -3 6 -1 10 4 10 6 0 11 -4
11 -10z m50 -10 c0 -13 -7 -20 -20 -20 -13 0 -20 7 -20 20 0 13 7 20 20 20 13
0 20 -7 20 -20z m227 -12 c-3 -7 -5 -2 -5 12 0 14 2 19 5 13 2 -7 2 -19 0 -25z
m33 22 c0 -5 -2 -10 -4 -10 -3 0 -8 5 -11 10 -3 6 -1 10 4 10 6 0 11 -4 11
-10z m32 -20 c5 0 8 7 4 15 -3 8 -1 15 4 15 6 0 10 -9 10 -20 0 -13 -7 -20
-20 -20 -14 0 -20 6 -19 23 1 16 2 18 6 5 2 -10 9 -18 15 -18z m-659 -7 c-7
-2 -19 -2 -25 0 -7 3 -2 5 12 5 14 0 19 -2 13 -5z m-143 -17 c0 -3 -4 -8 -10
-11 -5 -3 -10 -1 -10 4 0 6 5 11 10 11 6 0 10 -2 10 -4z m410 -6 c0 -5 -4 -10
-10 -10 -5 0 -10 5 -10 10 0 6 5 10 10 10 6 0 10 -4 10 -10z m50 0 c0 -5 -4
-10 -10 -10 -5 0 -10 5 -10 10 0 6 5 10 10 10 6 0 10 -4 10 -10z m-393 -102
c-3 -7 -5 -2 -5 12 0 14 2 19 5 13 2 -7 2 -19 0 -25z m80 12 c1 -14 -4 -20
-18 -20 -10 0 -19 5 -19 11 0 5 5 7 10 4 6 -3 10 -2 10 4 0 5 -6 12 -12 14 -7
3 -4 6 7 6 14 1 21 -6 22 -19z m-97 -10 c0 -5 -4 -10 -10 -10 -5 0 -10 5 -10
10 0 6 5 10 10 10 6 0 10 -4 10 -10z m50 0 c0 -5 -5 -10 -11 -10 -5 0 -7 5 -4
10 3 6 8 10 11 10 2 0 4 -4 4 -10z"/>
<path d="M1085 1360 c-3 -5 -1 -10 4 -10 6 0 11 5 11 10 0 6 -2 10 -4 10 -3 0
-8 -4 -11 -10z"/>
<path d="M1675 1360 c-3 -5 -1 -10 4 -10 6 0 11 5 11 10 0 6 -2 10 -4 10 -3 0
-8 -4 -11 -10z"/>
<path d="M0 1729 c0 -22 36 -58 58 -59 6 0 12 11 12 25 0 17 -9 29 -30 40 -38
19 -40 19 -40 -6z"/>
<path d="M2205 1721 c6 -11 75 -12 75 -1 0 3 -18 7 -41 9 -25 1 -38 -2 -34 -8z"/>
<path d="M138 1693 c7 -3 16 -2 19 1 4 3 -2 6 -13 5 -11 0 -14 -3 -6 -6z"/>
<path d="M2200 1674 c0 -9 5 -12 13 -8 8 5 8 2 -2 -9 -12 -15 -10 -17 15 -17
l27 0 -23 25 c-28 29 -30 30 -30 9z"/>
<path d="M115 1670 c-3 -5 -16 -10 -28 -10 -22 -1 -22 -1 -2 -16 18 -13 20
-13 23 0 2 8 11 16 20 18 12 2 13 6 5 11 -6 4 -14 3 -18 -3z"/>
<path d="M2190 1610 c0 -7 19 -10 44 -9 25 2 43 6 40 11 -8 12 -84 10 -84 -2z"/>
<path d="M86 1581 c-17 -18 -17 -20 1 -29 25 -14 45 8 28 31 -11 16 -13 15
-29 -2z"/>
<path d="M2010 1588 c0 -7 -3 -23 -6 -34 -5 -17 1 -25 26 -38 37 -18 50 -14
50 17 0 14 -13 30 -35 45 -23 14 -35 18 -35 10z"/>
<path d="M2482 1580 c0 -14 2 -19 5 -12 2 6 2 18 0 25 -3 6 -5 1 -5 -13z"/>
<path d="M2293 1561 c-10 -15 -9 -20 1 -24 23 -9 38 7 23 26 -11 16 -13 16
-24 -2z"/>
<path d="M1729 1548 c-6 -21 -5 -38 2 -38 5 0 9 9 9 20 0 16 -7 28 -11 18z"/>
<path d="M2100 1505 c-11 -13 -8 -15 20 -15 28 0 31 2 20 15 -7 8 -16 15 -20
15 -4 0 -13 -7 -20 -15z"/>
<path d="M1620 1459 c0 -5 5 -7 10 -4 6 3 10 8 10 11 0 2 -4 4 -10 4 -5 0 -10
-5 -10 -11z"/>
<path d="M1650 1453 c0 -11 3 -14 8 -7 4 6 14 14 22 17 10 4 8 6 -7 6 -16 1
-23 -5 -23 -16z"/>
<path d="M1783 1390 c-1 -25 1 -37 4 -27 2 9 13 17 23 17 10 0 21 -8 23 -17 3
-10 5 -2 5 17 0 19 -2 29 -5 23 -8 -22 -41 -15 -46 10 -2 12 -4 2 -4 -23z"/>
<path d="M1620 1410 c0 -5 5 -10 10 -10 6 0 10 5 10 10 0 6 -4 10 -10 10 -5 0
-10 -4 -10 -10z"/>
<path d="M1750 1409 c0 -5 5 -7 10 -4 6 3 10 8 10 11 0 2 -4 4 -10 4 -5 0 -10
-5 -10 -11z"/>
<path d="M158 1403 c7 -3 16 -2 19 1 4 3 -2 6 -13 5 -11 0 -14 -3 -6 -6z"/>
<path d="M139 1361 c11 -7 9 -10 -10 -14 -16 -3 -10 -5 16 -5 26 -1 35 1 26 7
-11 7 -11 9 0 14 8 3 1 6 -16 6 -21 1 -26 -2 -16 -8z"/>
<path d="M223 1298 c14 -22 23 -23 30 -4 4 9 -3 16 -18 18 -20 4 -22 3 -12
-14z"/>
<path d="M1675 1310 c-3 -5 -1 -10 4 -10 6 0 11 5 11 10 0 6 -2 10 -4 10 -3 0
-8 -4 -11 -10z"/>
<path d="M150 1291 l-35 -7 29 -7 c19 -5 32 -4 36 3 5 8 9 7 13 -4 4 -9 16
-16 27 -16 18 0 19 2 8 20 -13 21 -20 22 -78 11z"/>
<path d="M88 1282 c-24 -5 -23 -29 2 -42 16 -9 20 -8 20 5 0 9 9 15 23 14 21
0 21 -1 2 -9 -17 -7 -17 -9 -2 -9 9 -1 17 -6 17 -11 0 -6 6 -5 14 2 11 11 11
15 -3 25 -9 7 -23 13 -33 13 -9 0 -18 4 -20 8 -1 4 -11 6 -20 4z"/>
<path d="M540 1280 c0 -5 5 -10 10 -10 6 0 10 5 10 10 0 6 -4 10 -10 10 -5 0
-10 -4 -10 -10z"/>
<path d="M1570 1279 c0 -5 5 -7 10 -4 6 3 10 8 10 11 0 2 -4 4 -10 4 -5 0 -10
-5 -10 -11z"/>
<path d="M20 1270 c20 -13 40 -13 40 0 0 6 -12 10 -27 10 -22 0 -25 -2 -13
-10z"/>
<path d="M285 1248 c3 -60 11 -68 74 -68 44 0 60 4 74 20 10 12 23 17 33 13
13 -5 16 -2 12 9 -4 9 -1 21 5 27 21 21 -14 32 -83 28 -36 -2 -74 -7 -85 -11
-16 -6 -17 -6 -5 3 13 9 12 11 -6 11 -18 0 -21 -6 -19 -32z"/>
<path d="M190 1249 c0 -5 9 -9 20 -9 11 0 20 2 20 4 0 2 -9 6 -20 9 -11 3 -20
1 -20 -4z"/>
<path d="M0 1205 c1 -26 2 -28 11 -12 8 14 8 22 0 30 -8 8 -11 3 -11 -18z"/>
<path d="M200 1220 c-8 -5 -10 -10 -5 -10 6 0 17 5 25 10 8 5 11 10 5 10 -5 0
-17 -5 -25 -10z"/>
<path d="M25 1190 c-3 -5 -2 -10 4 -10 5 0 13 5 16 10 3 6 2 10 -4 10 -5 0
-13 -4 -16 -10z"/>
<path d="M1240 1179 c0 -5 10 -9 22 -9 12 0 18 3 14 7 -10 11 -36 12 -36 2z"/>
<path d="M27 1164 c-36 -20 -28 -28 17 -20 25 5 34 11 29 21 -6 18 -11 18 -46
-1z"/>
<path d="M421 1143 l-42 -28 57 -3 c31 -2 58 -1 61 1 5 6 -18 57 -27 57 -3 0
-25 -12 -49 -27z"/>
<path d="M1148 1153 c7 -3 16 -2 19 1 4 3 -2 6 -13 5 -11 0 -14 -3 -6 -6z"/>
<path d="M1253 1153 c9 -2 23 -2 30 0 6 3 -1 5 -18 5 -16 0 -22 -2 -12 -5z"/>
<path d="M877 1069 c5 -50 13 -66 13 -26 0 19 5 27 18 28 13 0 14 2 2 6 -8 4
-20 13 -26 21 -9 12 -10 6 -7 -29z"/>
<path d="M1421 1094 c0 -11 3 -14 6 -6 3 7 2 16 -1 19 -3 4 -6 -2 -5 -13z"/>
<path d="M401 1074 c26 -20 42 -24 68 -20 19 3 39 10 45 16 18 18 -14 30 -83
30 l-65 0 35 -26z"/>
<path d="M980 1069 c0 -5 5 -7 11 -3 6 3 15 0 20 -7 7 -11 9 -10 9 4 0 10 -8
17 -20 17 -11 0 -20 -5 -20 -11z"/>
<path d="M1118 1073 c6 -2 18 -2 25 0 6 3 1 5 -13 5 -14 0 -19 -2 -12 -5z"/>
<path d="M900 1050 c0 -5 5 -10 10 -10 6 0 10 5 10 10 0 6 -4 10 -10 10 -5 0
-10 -4 -10 -10z"/>
<path d="M480 1040 c-12 -8 -11 -10 8 -10 12 0 25 0 29 -1 4 0 9 4 11 10 5 14
-28 14 -48 1z"/>
<path d="M1133 1023 c9 -2 23 -2 30 0 6 3 -1 5 -18 5 -16 0 -22 -2 -12 -5z"/>
<path d="M720 1000 c0 -5 5 -10 10 -10 6 0 10 5 10 10 0 6 -4 10 -10 10 -5 0
-10 -4 -10 -10z"/>
<path d="M288 653 c6 -2 18 -2 25 0 6 3 1 5 -13 5 -14 0 -19 -2 -12 -5z"/>
<path d="M315 636 l-30 -13 27 -8 c37 -10 62 -3 66 18 4 21 -20 22 -63 3z"/>
<path d="M623 613 c-15 -3 -23 -12 -23 -24 0 -16 4 -19 23 -13 53 16 68 25 62
34 -6 10 -22 11 -62 3z"/>
<path d="M58 593 c-31 -19 -44 -43 -25 -44 7 0 22 -2 34 -3 12 -1 20 1 17 6
-3 4 0 8 5 8 18 0 12 18 -6 23 -13 3 -12 5 5 6 13 0 20 6 17 11 -8 13 -15 12
-47 -7z"/>
<path d="M285 590 c3 -5 21 -10 38 -10 24 0 28 3 17 10 -20 13 -63 13 -55 0z"/>
<path d="M134 580 c-22 -9 -37 -34 -27 -44 4 -3 16 -6 27 -6 21 1 21 1 2 15
-11 8 -14 15 -8 15 7 0 20 -9 29 -20 10 -11 28 -20 40 -20 23 0 23 1 9 29 -12
23 -39 44 -49 40 -1 0 -11 -4 -23 -9z"/>
<path d="M651 574 c-24 -7 -49 -19 -57 -25 -8 -6 -35 -16 -61 -20 -26 -5 -51
-13 -55 -17 -4 -4 31 -21 80 -36 48 -16 94 -32 103 -37 9 -4 27 -6 40 -3 13 2
18 2 11 -2 -6 -3 -10 -9 -7 -14 3 -4 -36 3 -87 16 -51 13 -100 24 -111 24 -10
0 -16 4 -13 9 6 10 -37 31 -64 31 -29 0 -30 -22 -1 -54 25 -29 25 -28 -16 4
-39 30 -73 35 -73 11 0 -6 8 -7 18 -4 15 6 16 5 2 -12 -8 -11 -27 -30 -41 -42
-15 -12 -29 -36 -32 -53 -6 -29 -9 -30 -57 -30 l-50 0 0 45 c0 49 2 49 -73 28
-10 -2 -24 1 -32 7 -8 6 -19 9 -25 5 -5 -3 -10 0 -10 7 0 7 -9 19 -20 26 -20
12 -20 10 -20 -213 l0 -226 905 1 c498 1 905 3 905 5 0 17 -39 35 -76 35 -47
0 -93 17 -78 29 5 3 15 16 21 28 11 19 9 24 -12 42 -25 19 -65 18 -65 -2 0 -6
8 -20 17 -31 14 -16 11 -15 -9 3 -17 15 -33 21 -44 17 -14 -5 -15 -4 -5 8 8
10 9 16 1 21 -5 3 -10 11 -10 17 0 6 8 4 18 -5 16 -15 21 -15 38 -2 18 14 18
14 -11 16 -35 2 -45 4 -65 12 -58 21 -86 9 -96 -43 -7 -33 -51 -61 -79 -50
-40 15 -49 37 -36 81 14 45 9 56 -26 70 -30 11 -91 -5 -110 -29 -11 -13 -13
-10 -13 21 0 33 -3 37 -37 46 -43 12 -116 4 -110 -13 2 -6 13 -12 25 -14 25
-4 29 -27 6 -36 -24 -9 -36 -7 -29 4 4 6 11 8 16 5 5 -4 9 -2 9 3 0 14 -31 20
-60 11 -23 -7 -23 -10 -1 -13 14 -2 26 -16 13 -16 -21 0 -42 12 -42 25 0 15
27 28 41 19 5 -3 9 2 9 10 0 11 -9 16 -27 16 -26 0 -26 1 -7 16 19 15 19 16
-1 8 -11 -4 -30 -7 -42 -7 -13 1 -20 -3 -17 -8 3 -5 -2 -6 -11 -3 -11 5 -13
10 -5 19 8 9 8 15 0 20 -5 3 -10 3 -10 -1 0 -4 -8 0 -17 8 -10 9 -37 22 -61
29 -40 11 -44 11 -70 -12 l-27 -24 23 26 22 26 -22 11 c-36 17 2 15 52 -3 24
-8 48 -14 54 -13 6 1 22 -4 36 -11 20 -9 32 -10 55 0 l30 12 -30 8 c-16 5 -43
8 -60 7 -16 -1 -40 3 -51 10 -12 6 -25 8 -30 4 -5 -4 -2 1 5 11 10 13 11 20 2
31 -8 10 -9 16 -1 21 6 4 9 3 8 -2 -4 -14 22 -53 36 -53 8 0 16 11 18 25 5 22
2 25 -15 19 -13 -4 -17 -2 -13 5 4 6 1 11 -6 11 -8 0 -6 5 4 11 17 9 17 12 3
39 -26 51 -90 29 -65 -22 l11 -23 -18 23 c-15 19 -25 22 -48 16 -24 -6 -27 -4
-22 10 8 20 3 20 -31 0 -21 -13 -19 -9 8 14 19 17 33 32 30 35 -3 2 -25 -2
-49 -9z m-254 -146 c-3 -8 -6 -5 -6 6 -1 11 2 17 5 13 3 -3 4 -12 1 -19z m123
2 c-14 -11 -29 -20 -35 -20 -5 0 1 -9 15 -20 18 -14 28 -16 38 -8 7 7 23 12
35 13 12 1 33 4 47 8 16 5 11 0 -12 -13 -44 -24 -47 -43 -15 -78 12 -14 16
-22 9 -18 -8 5 -23 -2 -39 -18 -14 -14 -37 -26 -50 -26 -32 0 -63 17 -63 35 0
7 -7 20 -14 28 -13 13 -10 17 25 32 21 10 39 21 39 25 0 11 -26 31 -32 25 -2
-3 -5 2 -5 10 0 8 4 12 8 10 4 -3 18 4 30 15 13 11 29 19 34 19 6 1 -1 -8 -15
-19z m-102 -65 c21 12 19 9 -7 -14 -19 -17 -36 -29 -37 -28 -2 1 0 23 4 47 6
43 7 43 10 12 l3 -33 27 16z m592 -205 c0 -5 -10 -10 -22 -10 -19 0 -20 2 -8
10 19 13 30 13 30 0z m43 -7 c-7 -2 -19 -2 -25 0 -7 3 -2 5 12 5 14 0 19 -2
13 -5z"/>
<path d="M17 533 c-16 -15 -5 -31 23 -35 37 -6 50 10 25 29 -21 14 -38 17 -48
6z"/>
<path d="M440 520 c0 -5 7 -7 15 -4 8 4 15 8 15 10 0 2 -7 4 -15 4 -8 0 -15
-4 -15 -10z"/>
<path d="M943 520 c-29 -12 -29 -18 0 -74 22 -43 24 -45 43 -30 10 8 14 13 9
10 -6 -2 -17 0 -25 5 -13 8 -13 10 0 20 13 9 12 10 -2 5 -19 -6 -25 9 -8 19 5
3 9 17 8 30 -1 14 -3 25 -3 24 0 0 -10 -4 -22 -9z"/>
<path d="M90 505 c0 -11 11 -15 43 -14 23 0 51 4 62 8 16 7 14 9 -14 14 -57
12 -91 8 -91 -8z"/>
<path d="M360 511 c0 -14 18 -23 31 -15 8 4 7 9 -2 15 -18 11 -29 11 -29 0z"/>
<path d="M887 486 c-3 -7 -1 -18 5 -24 8 -8 7 -16 -2 -27 -7 -8 -11 -17 -9
-19 9 -9 71 -17 67 -10 -2 5 -12 28 -22 52 -19 44 -30 52 -39 28z"/>
<path d="M223 463 c9 -2 23 -2 30 0 6 3 -1 5 -18 5 -16 0 -22 -2 -12 -5z"/>
<path d="M1059 446 c10 -12 7 -15 -15 -18 -15 -2 -29 -8 -31 -15 -3 -7 3 -10
15 -6 11 2 26 -2 33 -10 11 -12 18 -12 51 1 21 8 38 19 38 25 0 18 -34 36 -69
37 -28 0 -31 -2 -22 -14z"/>
<path d="M88 413 c6 -2 18 -2 25 0 6 3 1 5 -13 5 -14 0 -19 -2 -12 -5z"/>
<path d="M290 409 c0 -5 5 -7 10 -4 6 3 10 8 10 11 0 2 -4 4 -10 4 -5 0 -10
-5 -10 -11z"/>
<path d="M1123 393 c-22 -8 -14 -23 12 -23 18 0 23 4 19 15 -6 16 -11 17 -31
8z"/>
<path d="M1043 363 c-13 -2 -23 -8 -23 -13 0 -5 -8 -10 -17 -12 -17 -4 110
-38 141 -38 11 0 16 9 16 29 0 25 -4 29 -37 35 -40 6 -44 6 -80 -1z"/>
<path d="M1188 363 c6 -2 18 -2 25 0 6 3 1 5 -13 5 -14 0 -19 -2 -12 -5z"/>
<path d="M1170 325 c0 -18 7 -28 26 -35 35 -14 37 -13 51 16 10 23 9 26 -13
35 -45 16 -64 12 -64 -16z"/>
<path d="M1180 260 c0 -17 3 -18 26 -8 23 11 24 13 7 19 -29 12 -33 10 -33
-11z"/>
</g>
</svg>
